<mxfile host="app.diagrams.net" modified="2022-06-21T10:48:46.472Z" agent="5.0 (Macintosh; Intel Mac OS X 10_15_7) AppleWebKit/537.36 (KHTML, like Gecko) Chrome/102.0.0.0 Safari/537.36" etag="N4A4P9C4ix0qm0ilaewv" version="20.0.1" type="github">
  <diagram id="uL2HjZoqVSDYFeScf6vW" name="Page-1">
    <mxGraphModel dx="1158" dy="658" grid="1" gridSize="10" guides="1" tooltips="1" connect="1" arrows="1" fold="1" page="1" pageScale="1" pageWidth="1169" pageHeight="827" math="0" shadow="0">
      <root>
        <mxCell id="0" />
        <mxCell id="1" parent="0" />
        <mxCell id="tu4dF6iyauFxDEGfgT2A-1" value="Requirements:&lt;br&gt;1. Upload images from a mobile client&lt;br&gt;&lt;div style=&quot;text-align: left;&quot;&gt;&lt;span style=&quot;background-color: initial;&quot;&gt;2. Users follow other users&lt;/span&gt;&lt;/div&gt;&lt;div style=&quot;text-align: left;&quot;&gt;&lt;span style=&quot;background-color: initial;&quot;&gt;3. Generate images&lt;/span&gt;&lt;/div&gt;&lt;div style=&quot;text-align: left;&quot;&gt;&lt;span style=&quot;background-color: initial;&quot;&gt;4. Scale: 10 million users&lt;/span&gt;&lt;/div&gt;&lt;div style=&quot;text-align: left;&quot;&gt;&lt;span style=&quot;background-color: initial;&quot;&gt;5. 10 million users monthly basis&lt;/span&gt;&lt;/div&gt;&lt;div style=&quot;text-align: left;&quot;&gt;&lt;span style=&quot;background-color: initial;&quot;&gt;6. 2 photos per month&lt;/span&gt;&lt;/div&gt;&lt;div style=&quot;text-align: left;&quot;&gt;7. 5 MB per photo&lt;/div&gt;" style="rounded=1;whiteSpace=wrap;html=1;" vertex="1" parent="1">
          <mxGeometry width="220" height="120" as="geometry" />
        </mxCell>
        <mxCell id="tu4dF6iyauFxDEGfgT2A-2" value="User Table" style="shape=table;startSize=30;container=1;collapsible=1;childLayout=tableLayout;fixedRows=1;rowLines=0;fontStyle=1;align=center;resizeLast=1;" vertex="1" parent="1">
          <mxGeometry x="240" y="140" width="180" height="160" as="geometry" />
        </mxCell>
        <mxCell id="tu4dF6iyauFxDEGfgT2A-3" value="" style="shape=tableRow;horizontal=0;startSize=0;swimlaneHead=0;swimlaneBody=0;fillColor=none;collapsible=0;dropTarget=0;points=[[0,0.5],[1,0.5]];portConstraint=eastwest;top=0;left=0;right=0;bottom=1;" vertex="1" parent="tu4dF6iyauFxDEGfgT2A-2">
          <mxGeometry y="30" width="180" height="30" as="geometry" />
        </mxCell>
        <mxCell id="tu4dF6iyauFxDEGfgT2A-4" value="PK" style="shape=partialRectangle;connectable=0;fillColor=none;top=0;left=0;bottom=0;right=0;fontStyle=1;overflow=hidden;" vertex="1" parent="tu4dF6iyauFxDEGfgT2A-3">
          <mxGeometry width="50" height="30" as="geometry">
            <mxRectangle width="50" height="30" as="alternateBounds" />
          </mxGeometry>
        </mxCell>
        <mxCell id="tu4dF6iyauFxDEGfgT2A-5" value="UniqueID" style="shape=partialRectangle;connectable=0;fillColor=none;top=0;left=0;bottom=0;right=0;align=left;spacingLeft=6;fontStyle=5;overflow=hidden;" vertex="1" parent="tu4dF6iyauFxDEGfgT2A-3">
          <mxGeometry x="50" width="130" height="30" as="geometry">
            <mxRectangle width="130" height="30" as="alternateBounds" />
          </mxGeometry>
        </mxCell>
        <mxCell id="tu4dF6iyauFxDEGfgT2A-6" value="" style="shape=tableRow;horizontal=0;startSize=0;swimlaneHead=0;swimlaneBody=0;fillColor=none;collapsible=0;dropTarget=0;points=[[0,0.5],[1,0.5]];portConstraint=eastwest;top=0;left=0;right=0;bottom=0;" vertex="1" parent="tu4dF6iyauFxDEGfgT2A-2">
          <mxGeometry y="60" width="180" height="30" as="geometry" />
        </mxCell>
        <mxCell id="tu4dF6iyauFxDEGfgT2A-7" value="name" style="shape=partialRectangle;connectable=0;fillColor=none;top=0;left=0;bottom=0;right=0;editable=1;overflow=hidden;" vertex="1" parent="tu4dF6iyauFxDEGfgT2A-6">
          <mxGeometry width="50" height="30" as="geometry">
            <mxRectangle width="50" height="30" as="alternateBounds" />
          </mxGeometry>
        </mxCell>
        <mxCell id="tu4dF6iyauFxDEGfgT2A-8" value="string" style="shape=partialRectangle;connectable=0;fillColor=none;top=0;left=0;bottom=0;right=0;align=left;spacingLeft=6;overflow=hidden;" vertex="1" parent="tu4dF6iyauFxDEGfgT2A-6">
          <mxGeometry x="50" width="130" height="30" as="geometry">
            <mxRectangle width="130" height="30" as="alternateBounds" />
          </mxGeometry>
        </mxCell>
        <mxCell id="tu4dF6iyauFxDEGfgT2A-9" value="" style="shape=tableRow;horizontal=0;startSize=0;swimlaneHead=0;swimlaneBody=0;fillColor=none;collapsible=0;dropTarget=0;points=[[0,0.5],[1,0.5]];portConstraint=eastwest;top=0;left=0;right=0;bottom=0;" vertex="1" parent="tu4dF6iyauFxDEGfgT2A-2">
          <mxGeometry y="90" width="180" height="30" as="geometry" />
        </mxCell>
        <mxCell id="tu4dF6iyauFxDEGfgT2A-10" value="email" style="shape=partialRectangle;connectable=0;fillColor=none;top=0;left=0;bottom=0;right=0;editable=1;overflow=hidden;" vertex="1" parent="tu4dF6iyauFxDEGfgT2A-9">
          <mxGeometry width="50" height="30" as="geometry">
            <mxRectangle width="50" height="30" as="alternateBounds" />
          </mxGeometry>
        </mxCell>
        <mxCell id="tu4dF6iyauFxDEGfgT2A-11" value="Email" style="shape=partialRectangle;connectable=0;fillColor=none;top=0;left=0;bottom=0;right=0;align=left;spacingLeft=6;overflow=hidden;" vertex="1" parent="tu4dF6iyauFxDEGfgT2A-9">
          <mxGeometry x="50" width="130" height="30" as="geometry">
            <mxRectangle width="130" height="30" as="alternateBounds" />
          </mxGeometry>
        </mxCell>
        <mxCell id="tu4dF6iyauFxDEGfgT2A-12" value="" style="shape=tableRow;horizontal=0;startSize=0;swimlaneHead=0;swimlaneBody=0;fillColor=none;collapsible=0;dropTarget=0;points=[[0,0.5],[1,0.5]];portConstraint=eastwest;top=0;left=0;right=0;bottom=0;" vertex="1" parent="tu4dF6iyauFxDEGfgT2A-2">
          <mxGeometry y="120" width="180" height="30" as="geometry" />
        </mxCell>
        <mxCell id="tu4dF6iyauFxDEGfgT2A-13" value="" style="shape=partialRectangle;connectable=0;fillColor=none;top=0;left=0;bottom=0;right=0;editable=1;overflow=hidden;" vertex="1" parent="tu4dF6iyauFxDEGfgT2A-12">
          <mxGeometry width="50" height="30" as="geometry">
            <mxRectangle width="50" height="30" as="alternateBounds" />
          </mxGeometry>
        </mxCell>
        <mxCell id="tu4dF6iyauFxDEGfgT2A-14" value="" style="shape=partialRectangle;connectable=0;fillColor=none;top=0;left=0;bottom=0;right=0;align=left;spacingLeft=6;overflow=hidden;" vertex="1" parent="tu4dF6iyauFxDEGfgT2A-12">
          <mxGeometry x="50" width="130" height="30" as="geometry">
            <mxRectangle width="130" height="30" as="alternateBounds" />
          </mxGeometry>
        </mxCell>
        <mxCell id="tu4dF6iyauFxDEGfgT2A-15" value="Image Table" style="shape=table;startSize=30;container=1;collapsible=1;childLayout=tableLayout;fixedRows=1;rowLines=0;fontStyle=1;align=center;resizeLast=1;" vertex="1" parent="1">
          <mxGeometry y="140" width="180" height="180" as="geometry" />
        </mxCell>
        <mxCell id="tu4dF6iyauFxDEGfgT2A-16" value="" style="shape=tableRow;horizontal=0;startSize=0;swimlaneHead=0;swimlaneBody=0;fillColor=none;collapsible=0;dropTarget=0;points=[[0,0.5],[1,0.5]];portConstraint=eastwest;top=0;left=0;right=0;bottom=1;" vertex="1" parent="tu4dF6iyauFxDEGfgT2A-15">
          <mxGeometry y="30" width="180" height="30" as="geometry" />
        </mxCell>
        <mxCell id="tu4dF6iyauFxDEGfgT2A-17" value="PK" style="shape=partialRectangle;connectable=0;fillColor=none;top=0;left=0;bottom=0;right=0;fontStyle=1;overflow=hidden;" vertex="1" parent="tu4dF6iyauFxDEGfgT2A-16">
          <mxGeometry width="70" height="30" as="geometry">
            <mxRectangle width="70" height="30" as="alternateBounds" />
          </mxGeometry>
        </mxCell>
        <mxCell id="tu4dF6iyauFxDEGfgT2A-18" value="UniqueID" style="shape=partialRectangle;connectable=0;fillColor=none;top=0;left=0;bottom=0;right=0;align=left;spacingLeft=6;fontStyle=5;overflow=hidden;" vertex="1" parent="tu4dF6iyauFxDEGfgT2A-16">
          <mxGeometry x="70" width="110" height="30" as="geometry">
            <mxRectangle width="110" height="30" as="alternateBounds" />
          </mxGeometry>
        </mxCell>
        <mxCell id="tu4dF6iyauFxDEGfgT2A-19" value="" style="shape=tableRow;horizontal=0;startSize=0;swimlaneHead=0;swimlaneBody=0;fillColor=none;collapsible=0;dropTarget=0;points=[[0,0.5],[1,0.5]];portConstraint=eastwest;top=0;left=0;right=0;bottom=0;" vertex="1" parent="tu4dF6iyauFxDEGfgT2A-15">
          <mxGeometry y="60" width="180" height="30" as="geometry" />
        </mxCell>
        <mxCell id="tu4dF6iyauFxDEGfgT2A-20" value="caption" style="shape=partialRectangle;connectable=0;fillColor=none;top=0;left=0;bottom=0;right=0;editable=1;overflow=hidden;" vertex="1" parent="tu4dF6iyauFxDEGfgT2A-19">
          <mxGeometry width="70" height="30" as="geometry">
            <mxRectangle width="70" height="30" as="alternateBounds" />
          </mxGeometry>
        </mxCell>
        <mxCell id="tu4dF6iyauFxDEGfgT2A-21" value="string" style="shape=partialRectangle;connectable=0;fillColor=none;top=0;left=0;bottom=0;right=0;align=left;spacingLeft=6;overflow=hidden;" vertex="1" parent="tu4dF6iyauFxDEGfgT2A-19">
          <mxGeometry x="70" width="110" height="30" as="geometry">
            <mxRectangle width="110" height="30" as="alternateBounds" />
          </mxGeometry>
        </mxCell>
        <mxCell id="tu4dF6iyauFxDEGfgT2A-22" value="" style="shape=tableRow;horizontal=0;startSize=0;swimlaneHead=0;swimlaneBody=0;fillColor=none;collapsible=0;dropTarget=0;points=[[0,0.5],[1,0.5]];portConstraint=eastwest;top=0;left=0;right=0;bottom=0;" vertex="1" parent="tu4dF6iyauFxDEGfgT2A-15">
          <mxGeometry y="90" width="180" height="50" as="geometry" />
        </mxCell>
        <mxCell id="tu4dF6iyauFxDEGfgT2A-23" value="user_id" style="shape=partialRectangle;connectable=0;fillColor=none;top=0;left=0;bottom=0;right=0;editable=1;overflow=hidden;" vertex="1" parent="tu4dF6iyauFxDEGfgT2A-22">
          <mxGeometry width="70" height="50" as="geometry">
            <mxRectangle width="70" height="50" as="alternateBounds" />
          </mxGeometry>
        </mxCell>
        <mxCell id="tu4dF6iyauFxDEGfgT2A-24" value="foreign key referencing user.id" style="shape=partialRectangle;connectable=0;fillColor=none;top=0;left=0;bottom=0;right=0;align=left;spacingLeft=6;overflow=hidden;collapsible=0;resizeHeight=0;rowspan=1;colspan=1;whiteSpace=wrap;" vertex="1" parent="tu4dF6iyauFxDEGfgT2A-22">
          <mxGeometry x="70" width="110" height="50" as="geometry">
            <mxRectangle width="110" height="50" as="alternateBounds" />
          </mxGeometry>
        </mxCell>
        <mxCell id="tu4dF6iyauFxDEGfgT2A-25" value="" style="shape=tableRow;horizontal=0;startSize=0;swimlaneHead=0;swimlaneBody=0;fillColor=none;collapsible=0;dropTarget=0;points=[[0,0.5],[1,0.5]];portConstraint=eastwest;top=0;left=0;right=0;bottom=0;" vertex="1" parent="tu4dF6iyauFxDEGfgT2A-15">
          <mxGeometry y="140" width="180" height="30" as="geometry" />
        </mxCell>
        <mxCell id="tu4dF6iyauFxDEGfgT2A-26" value="file_path" style="shape=partialRectangle;connectable=0;fillColor=none;top=0;left=0;bottom=0;right=0;editable=1;overflow=hidden;" vertex="1" parent="tu4dF6iyauFxDEGfgT2A-25">
          <mxGeometry width="70" height="30" as="geometry">
            <mxRectangle width="70" height="30" as="alternateBounds" />
          </mxGeometry>
        </mxCell>
        <mxCell id="tu4dF6iyauFxDEGfgT2A-27" value="string" style="shape=partialRectangle;connectable=0;fillColor=none;top=0;left=0;bottom=0;right=0;align=left;spacingLeft=6;overflow=hidden;" vertex="1" parent="tu4dF6iyauFxDEGfgT2A-25">
          <mxGeometry x="70" width="110" height="30" as="geometry">
            <mxRectangle width="110" height="30" as="alternateBounds" />
          </mxGeometry>
        </mxCell>
        <mxCell id="tu4dF6iyauFxDEGfgT2A-42" style="edgeStyle=orthogonalEdgeStyle;rounded=0;orthogonalLoop=1;jettySize=auto;html=1;exitX=1;exitY=0.5;exitDx=0;exitDy=0;entryX=0;entryY=0.25;entryDx=0;entryDy=0;" edge="1" parent="1" source="tu4dF6iyauFxDEGfgT2A-22" target="tu4dF6iyauFxDEGfgT2A-2">
          <mxGeometry relative="1" as="geometry" />
        </mxCell>
        <mxCell id="tu4dF6iyauFxDEGfgT2A-45" style="edgeStyle=orthogonalEdgeStyle;rounded=0;orthogonalLoop=1;jettySize=auto;html=1;exitX=0.5;exitY=1;exitDx=0;exitDy=0;exitPerimeter=0;entryX=0.5;entryY=0;entryDx=0;entryDy=0;entryPerimeter=0;" edge="1" parent="1" source="tu4dF6iyauFxDEGfgT2A-43" target="tu4dF6iyauFxDEGfgT2A-44">
          <mxGeometry relative="1" as="geometry" />
        </mxCell>
        <mxCell id="tu4dF6iyauFxDEGfgT2A-56" style="edgeStyle=orthogonalEdgeStyle;rounded=0;orthogonalLoop=1;jettySize=auto;html=1;entryX=1;entryY=0.5;entryDx=0;entryDy=0;entryPerimeter=0;exitX=0.5;exitY=0;exitDx=0;exitDy=0;exitPerimeter=0;" edge="1" parent="1" source="tu4dF6iyauFxDEGfgT2A-43" target="tu4dF6iyauFxDEGfgT2A-51">
          <mxGeometry relative="1" as="geometry" />
        </mxCell>
        <mxCell id="tu4dF6iyauFxDEGfgT2A-43" value="Metadata DB" style="strokeWidth=2;html=1;shape=mxgraph.flowchart.database;whiteSpace=wrap;fillColor=none;" vertex="1" parent="1">
          <mxGeometry x="792" y="531" width="91" height="72" as="geometry" />
        </mxCell>
        <mxCell id="tu4dF6iyauFxDEGfgT2A-44" value="Object Storage S3" style="strokeWidth=2;html=1;shape=mxgraph.flowchart.database;whiteSpace=wrap;fillColor=none;noLabel=0;" vertex="1" parent="1">
          <mxGeometry x="777" y="651" width="121" height="52" as="geometry" />
        </mxCell>
        <mxCell id="tu4dF6iyauFxDEGfgT2A-46" value="File Path" style="text;html=1;align=center;verticalAlign=middle;resizable=0;points=[];autosize=1;strokeColor=none;fillColor=none;" vertex="1" parent="1">
          <mxGeometry x="837" y="611" width="60" height="20" as="geometry" />
        </mxCell>
        <mxCell id="tu4dF6iyauFxDEGfgT2A-52" style="edgeStyle=orthogonalEdgeStyle;rounded=0;orthogonalLoop=1;jettySize=auto;html=1;exitX=1;exitY=0.5;exitDx=0;exitDy=0;entryX=0;entryY=0.5;entryDx=0;entryDy=0;entryPerimeter=0;" edge="1" parent="1" source="tu4dF6iyauFxDEGfgT2A-47" target="tu4dF6iyauFxDEGfgT2A-51">
          <mxGeometry relative="1" as="geometry" />
        </mxCell>
        <mxCell id="tu4dF6iyauFxDEGfgT2A-47" value="App Server (read)" style="whiteSpace=wrap;html=1;fillColor=none;" vertex="1" parent="1">
          <mxGeometry x="382" y="481" width="121" height="62" as="geometry" />
        </mxCell>
        <mxCell id="tu4dF6iyauFxDEGfgT2A-54" style="edgeStyle=orthogonalEdgeStyle;rounded=0;orthogonalLoop=1;jettySize=auto;html=1;entryX=0;entryY=0.5;entryDx=0;entryDy=0;entryPerimeter=0;" edge="1" parent="1" source="tu4dF6iyauFxDEGfgT2A-48" target="tu4dF6iyauFxDEGfgT2A-43">
          <mxGeometry relative="1" as="geometry">
            <mxPoint x="792" y="581" as="targetPoint" />
          </mxGeometry>
        </mxCell>
        <mxCell id="tu4dF6iyauFxDEGfgT2A-58" style="edgeStyle=orthogonalEdgeStyle;rounded=0;orthogonalLoop=1;jettySize=auto;html=1;exitX=0.5;exitY=1;exitDx=0;exitDy=0;" edge="1" parent="1" source="tu4dF6iyauFxDEGfgT2A-48" target="tu4dF6iyauFxDEGfgT2A-44">
          <mxGeometry relative="1" as="geometry" />
        </mxCell>
        <mxCell id="tu4dF6iyauFxDEGfgT2A-48" value="App Server (write)" style="whiteSpace=wrap;html=1;fillColor=none;" vertex="1" parent="1">
          <mxGeometry x="382" y="591" width="121" height="62" as="geometry" />
        </mxCell>
        <mxCell id="tu4dF6iyauFxDEGfgT2A-51" value="RDS" style="strokeWidth=2;html=1;shape=mxgraph.flowchart.database;whiteSpace=wrap;fillColor=none;" vertex="1" parent="1">
          <mxGeometry x="572" y="481" width="61" height="62" as="geometry" />
        </mxCell>
        <mxCell id="tu4dF6iyauFxDEGfgT2A-53" value="Read" style="text;html=1;align=center;verticalAlign=middle;resizable=0;points=[];autosize=1;strokeColor=none;fillColor=none;" vertex="1" parent="1">
          <mxGeometry x="512" y="491" width="40" height="20" as="geometry" />
        </mxCell>
        <mxCell id="tu4dF6iyauFxDEGfgT2A-55" value="Write" style="text;html=1;align=center;verticalAlign=middle;resizable=0;points=[];autosize=1;strokeColor=none;fillColor=none;" vertex="1" parent="1">
          <mxGeometry x="512" y="601" width="40" height="20" as="geometry" />
        </mxCell>
        <mxCell id="tu4dF6iyauFxDEGfgT2A-59" value="Upload" style="text;html=1;align=center;verticalAlign=middle;resizable=0;points=[];autosize=1;strokeColor=none;fillColor=none;" vertex="1" parent="1">
          <mxGeometry x="507" y="651" width="50" height="20" as="geometry" />
        </mxCell>
        <mxCell id="tu4dF6iyauFxDEGfgT2A-64" value="" style="edgeStyle=orthogonalEdgeStyle;rounded=0;orthogonalLoop=1;jettySize=auto;html=1;" edge="1" parent="1" source="tu4dF6iyauFxDEGfgT2A-60" target="tu4dF6iyauFxDEGfgT2A-48">
          <mxGeometry relative="1" as="geometry" />
        </mxCell>
        <mxCell id="tu4dF6iyauFxDEGfgT2A-66" style="edgeStyle=orthogonalEdgeStyle;rounded=0;orthogonalLoop=1;jettySize=auto;html=1;entryX=0;entryY=0.5;entryDx=0;entryDy=0;" edge="1" parent="1" source="tu4dF6iyauFxDEGfgT2A-60" target="tu4dF6iyauFxDEGfgT2A-47">
          <mxGeometry relative="1" as="geometry" />
        </mxCell>
        <mxCell id="tu4dF6iyauFxDEGfgT2A-67" value="" style="edgeStyle=orthogonalEdgeStyle;rounded=0;orthogonalLoop=1;jettySize=auto;html=1;" edge="1" parent="1" source="tu4dF6iyauFxDEGfgT2A-60" target="tu4dF6iyauFxDEGfgT2A-48">
          <mxGeometry relative="1" as="geometry" />
        </mxCell>
        <mxCell id="tu4dF6iyauFxDEGfgT2A-69" style="edgeStyle=orthogonalEdgeStyle;rounded=0;orthogonalLoop=1;jettySize=auto;html=1;entryX=0;entryY=0.5;entryDx=0;entryDy=0;" edge="1" parent="1" source="tu4dF6iyauFxDEGfgT2A-60" target="tu4dF6iyauFxDEGfgT2A-61">
          <mxGeometry relative="1" as="geometry" />
        </mxCell>
        <mxCell id="tu4dF6iyauFxDEGfgT2A-60" value="ALB" style="ellipse;whiteSpace=wrap;html=1;fillColor=none;" vertex="1" parent="1">
          <mxGeometry x="230" y="541" width="110" height="60" as="geometry" />
        </mxCell>
        <mxCell id="tu4dF6iyauFxDEGfgT2A-62" style="edgeStyle=orthogonalEdgeStyle;rounded=0;orthogonalLoop=1;jettySize=auto;html=1;" edge="1" parent="1" source="tu4dF6iyauFxDEGfgT2A-61" target="tu4dF6iyauFxDEGfgT2A-51">
          <mxGeometry relative="1" as="geometry" />
        </mxCell>
        <mxCell id="tu4dF6iyauFxDEGfgT2A-61" value="App Server (read)" style="whiteSpace=wrap;html=1;fillColor=none;" vertex="1" parent="1">
          <mxGeometry x="382" y="390" width="121" height="62" as="geometry" />
        </mxCell>
        <mxCell id="tu4dF6iyauFxDEGfgT2A-63" value="Read" style="text;html=1;align=center;verticalAlign=middle;resizable=0;points=[];autosize=1;strokeColor=none;fillColor=none;" vertex="1" parent="1">
          <mxGeometry x="512" y="404" width="40" height="20" as="geometry" />
        </mxCell>
        <mxCell id="tu4dF6iyauFxDEGfgT2A-72" value="" style="edgeStyle=orthogonalEdgeStyle;rounded=0;orthogonalLoop=1;jettySize=auto;html=1;" edge="1" parent="1" source="tu4dF6iyauFxDEGfgT2A-71" target="tu4dF6iyauFxDEGfgT2A-60">
          <mxGeometry relative="1" as="geometry" />
        </mxCell>
        <mxCell id="tu4dF6iyauFxDEGfgT2A-71" value="Mobile Client" style="rounded=1;whiteSpace=wrap;html=1;fillColor=none;" vertex="1" parent="1">
          <mxGeometry x="20" y="541" width="120" height="60" as="geometry" />
        </mxCell>
      </root>
    </mxGraphModel>
  </diagram>
</mxfile>
